<svg width="65" height="65" viewBox="0 0 65 65" fill="none" xmlns="http://www.w3.org/2000/svg">
<path d="M32.5 0C38.9279 0 45.2114 1.90609 50.556 5.47724C55.9006 9.04838 60.0662 14.1242 62.5261 20.0628C64.9859 26.0014 65.6295 32.5361 64.3755 38.8404C63.1215 45.1448 60.0262 50.9358 55.481 55.481C50.9358 60.0262 45.1448 63.1215 38.8404 64.3755C32.5361 65.6295 26.0014 64.9859 20.0628 62.5261C14.1242 60.0662 9.04838 55.9006 5.47724 50.556C1.90609 45.2114 0 38.9279 0 32.5C0 23.8805 3.4241 15.614 9.51903 9.51903C15.614 3.4241 23.8805 0 32.5 0V0Z" fill="white"/>
<path d="M39.286 33C39.2862 32.8273 39.2515 32.6563 39.184 32.4973C39.1165 32.3384 39.0175 32.1947 38.893 32.075V32.075L31.179 24.361C31.0558 24.2389 30.9092 24.143 30.748 24.0791C30.5868 24.0151 30.4143 23.9845 30.2409 23.989C30.0676 23.9935 29.8969 24.0331 29.7392 24.1053C29.5815 24.1775 29.4401 24.2809 29.3235 24.4093C29.2068 24.5376 29.1173 24.6882 29.0605 24.8521C29.0036 25.0159 28.9804 25.1896 28.9924 25.3626C29.0045 25.5356 29.0514 25.7044 29.1303 25.8588C29.2093 26.0132 29.3187 26.15 29.452 26.261L36.185 33L29.36 39.822C29.2406 39.9414 29.1459 40.0831 29.0813 40.239C29.0167 40.395 28.9835 40.5622 28.9835 40.731C28.9835 40.8998 29.0167 41.067 29.0813 41.2229C29.1459 41.3789 29.2406 41.5206 29.36 41.64C29.4794 41.7594 29.6211 41.8541 29.7771 41.9187C29.933 41.9833 30.1002 42.0165 30.269 42.0165C30.4378 42.0165 30.605 41.9833 30.761 41.9187C30.9169 41.8541 31.0586 41.7594 31.178 41.64L38.892 33.926C39.0168 33.8062 39.116 33.6624 39.1837 33.5033C39.2515 33.3442 39.2862 33.1729 39.286 33V33Z" fill="#F9C705"/>
</svg>
