<svg width="65" height="65" viewBox="0 0 65 65" fill="none" xmlns="http://www.w3.org/2000/svg">
<defs>
<filter id="filter0_d_2_22" x="9" y="10.975" width="49.5" height="51.525" filterUnits="userSpaceOnUse" color-interpolation-filters="sRGB">
<feFlood flood-opacity="0" result="BackgroundImageFix"/>
<feColorMatrix in="SourceAlpha" type="matrix" values="0 0 0 0 0 0 0 0 0 0 0 0 0 0 0 0 0 0 127 0" result="hardAlpha"/>
<feOffset dy="8"/>
<feGaussianBlur stdDeviation="3"/>
<feColorMatrix type="matrix" values="0 0 0 0 1 0 0 0 0 0.305882 0 0 0 0 0 0 0 0 1 0"/>
<feBlend mode="normal" in2="BackgroundImageFix" result="effect1_dropShadow_2_22"/>
<feBlend mode="normal" in="SourceGraphic" in2="effect1_dropShadow_2_22" result="shape"/>
</filter>
<linearGradient id="paint0_linear_2_22" x1="32.5" y1="65" x2="32.5" y2="0" gradientUnits="userSpaceOnUse">
<stop stop-color="#FF7676"/>
<stop offset="1" stop-color="#FFAE4E"/>
</linearGradient>
<linearGradient id="paint1_linear_2_22" x1="29.475" y1="51.502" x2="29.475" y2="8.61093" gradientUnits="userSpaceOnUse">
<stop stop-color="white" stop-opacity="0.502"/>
<stop offset="1" stop-color="white"/>
</linearGradient>
</defs>    
<path d="M32.5 65C50.4493 65 65 50.4493 65 32.5C65 14.5507 50.4493 0 32.5 0C14.5507 0 0 14.5507 0 32.5C0 50.4493 14.5507 65 32.5 65Z" fill="url(#paint0_linear_2_22)"/>
<g filter="url(#filter0_d_2_22)">
<path d="M39.041 48.5C39.1702 48.1475 39.2378 47.7754 39.241 47.4C39.2395 46.5855 38.9338 45.8009 38.384 45.2C38.9337 44.599 39.2393 43.8145 39.241 43C39.2395 42.1855 38.9338 41.4009 38.384 40.8C38.9337 40.199 39.2393 39.4145 39.241 38.6C39.241 38.1666 39.1556 37.7375 38.9898 37.3371C38.824 36.9368 38.5809 36.573 38.2745 36.2665C37.968 35.9601 37.6042 35.717 37.2039 35.5512C36.8035 35.3854 36.3744 35.3 35.941 35.3H23.863V30.832H20.563C20.2713 30.832 19.9915 30.7161 19.7852 30.5098C19.5789 30.3035 19.463 30.0237 19.463 29.732V20.87C19.463 20.5783 19.5789 20.2985 19.7852 20.0922C19.9915 19.8859 20.2713 19.77 20.563 19.77H31.29L34.846 17.992V16.475C34.846 16.1833 34.9619 15.9035 35.1682 15.6972C35.3745 15.4909 35.6543 15.375 35.946 15.375C36.2377 15.375 36.5175 15.2591 36.7238 15.0528C36.9301 14.8465 37.046 14.5667 37.046 14.275C37.046 13.9833 36.9301 13.7035 36.7238 13.4972C36.5175 13.2909 36.2377 13.175 35.946 13.175C35.6543 13.175 35.3745 13.2909 35.1682 13.4972C34.9619 13.7035 34.846 13.9833 34.846 14.275C34.846 14.5667 34.7301 14.8465 34.5238 15.0528C34.3175 15.2591 34.0377 15.375 33.746 15.375C33.4543 15.375 33.1745 15.2591 32.9682 15.0528C32.7619 14.8465 32.646 14.5667 32.646 14.275C32.646 13.8416 32.7314 13.4125 32.8972 13.0121C33.063 12.6118 33.3061 12.248 33.6125 11.9415C33.919 11.6351 34.2828 11.392 34.6831 11.2262C35.0835 11.0604 35.5126 10.975 35.946 10.975C36.3794 10.975 36.8085 11.0604 37.2089 11.2262C37.6092 11.392 37.973 11.6351 38.2795 11.9415C38.5859 12.248 38.829 12.6118 38.9948 13.0121C39.1606 13.4125 39.246 13.8416 39.246 14.275C39.2455 14.957 39.0337 15.6222 38.6398 16.1789C38.2458 16.7357 37.689 17.1567 37.046 17.384V17.991L40.602 19.769H51.4C51.6917 19.769 51.9715 19.8849 52.1778 20.0912C52.3841 20.2975 52.5 20.5773 52.5 20.869V29.731C52.5 30.0227 52.3841 30.3025 52.1778 30.5088C51.9715 30.7151 51.6917 30.831 51.4 30.831H48.1V47.4C48.1 47.6917 47.9841 47.9715 47.7778 48.1778C47.5715 48.3841 47.2917 48.5 47 48.5H39.041ZM32.717 21.534C32.867 22.2805 33.2705 22.9523 33.8592 23.4352C34.4479 23.9182 35.1855 24.1828 35.947 24.184C36.7086 24.183 37.4465 23.9186 38.0354 23.4356C38.6243 22.9526 39.028 22.2807 39.178 21.534L35.947 19.919L32.717 21.534ZM16.1 48.5C15.8083 48.5 15.5285 48.3841 15.3222 48.1778C15.1159 47.9715 15 47.6917 15 47.4C15 47.1083 15.1159 46.8285 15.3222 46.6222C15.5285 46.4159 15.8083 46.3 16.1 46.3H35.949C36.2407 46.3 36.5205 46.4159 36.7268 46.6222C36.9331 46.8285 37.049 47.1083 37.049 47.4C37.049 47.6917 36.9331 47.9715 36.7268 48.1778C36.5205 48.3841 36.2407 48.5 35.949 48.5H16.1ZM16.1 44.105C15.8083 44.105 15.5285 43.9891 15.3222 43.7828C15.1159 43.5765 15 43.2967 15 43.005C15 42.7133 15.1159 42.4335 15.3222 42.2272C15.5285 42.0209 15.8083 41.905 16.1 41.905H35.949C36.2407 41.905 36.5205 42.0209 36.7268 42.2272C36.9331 42.4335 37.049 42.7133 37.049 43.005C37.049 43.2967 36.9331 43.5765 36.7268 43.7828C36.5205 43.9891 36.2407 44.105 35.949 44.105H16.1ZM16.1 39.71C15.8083 39.71 15.5285 39.5941 15.3222 39.3878C15.1159 39.1815 15 38.9017 15 38.61C15 38.3183 15.1159 38.0385 15.3222 37.8322C15.5285 37.6259 15.8083 37.51 16.1 37.51H35.949C36.2407 37.51 36.5205 37.6259 36.7268 37.8322C36.9331 38.0385 37.049 38.3183 37.049 38.61C37.049 38.9017 36.9331 39.1815 36.7268 39.3878C36.5205 39.5941 36.2407 39.71 35.949 39.71H16.1Z" fill="url(#paint1_linear_2_22)"/>
</g>
</svg>
