<svg width="65" height="65" viewBox="0 0 65 65" fill="none" xmlns="http://www.w3.org/2000/svg">
<defs>
<filter id="filter0_d_2_17" x="12" y="12.29" width="42.972" height="50.8" filterUnits="userSpaceOnUse" color-interpolation-filters="sRGB">
<feFlood flood-opacity="0" result="BackgroundImageFix"/>
<feColorMatrix in="SourceAlpha" type="matrix" values="0 0 0 0 0 0 0 0 0 0 0 0 0 0 0 0 0 0 127 0" result="hardAlpha"/>
<feOffset dy="8"/>
<feGaussianBlur stdDeviation="3"/>
<feColorMatrix type="matrix" values="0 0 0 0 0 0 0 0 0 0.384314 0 0 0 0 1 0 0 0 0.345 0"/>
<feBlend mode="normal" in2="BackgroundImageFix" result="effect1_dropShadow_2_17"/>
<feBlend mode="normal" in="SourceGraphic" in2="effect1_dropShadow_2_17" result="shape"/>
</filter>
<linearGradient id="paint0_linear_2_17" x1="32.5" y1="65" x2="32.5" y2="0" gradientUnits="userSpaceOnUse">
<stop stop-color="#76BAFF"/>
<stop offset="1" stop-color="#4EFFF8"/>
</linearGradient>
<linearGradient id="paint1_linear_2_17" x1="33.486" y1="12.29" x2="33.486" y2="49.09" gradientUnits="userSpaceOnUse">
<stop stop-color="white"/>
<stop offset="1" stop-color="white" stop-opacity="0.518"/>
</linearGradient>
</defs>
<path d="M32.5 0C38.9279 0 45.2114 1.90609 50.556 5.47724C55.9006 9.04838 60.0662 14.1242 62.5261 20.0628C64.9859 26.0014 65.6295 32.5361 64.3755 38.8404C63.1215 45.1448 60.0262 50.9358 55.481 55.481C50.9358 60.0262 45.1448 63.1215 38.8404 64.3755C32.5361 65.6295 26.0014 64.9859 20.0628 62.5261C14.1242 60.0662 9.04838 55.9006 5.47724 50.556C1.90609 45.2114 0 38.9279 0 32.5C0 23.8805 3.4241 15.614 9.51903 9.51903C15.614 3.4241 23.8805 0 32.5 0V0Z" fill="url(#paint0_linear_2_17)"/>
<g filter="url(#filter0_d_2_17)">
<path d="M37.211 49.09C36.7601 49.09 36.3277 48.9109 36.0089 48.5921C35.6901 48.2733 35.511 47.8409 35.511 47.39V28.978C35.5326 27.2072 36.2512 25.5162 37.5111 24.2716C38.7709 23.027 40.4705 22.329 42.2415 22.329C44.0125 22.329 45.7121 23.027 46.9719 24.2716C48.2318 25.5162 48.9504 27.2072 48.972 28.978V47.39C48.972 47.8409 48.7929 48.2733 48.4741 48.5921C48.1553 48.9109 47.7229 49.09 47.272 49.09H37.211ZM19.7 49.09C19.2491 49.09 18.8167 48.9109 18.4979 48.5921C18.1791 48.2733 18 47.8409 18 47.39V38.9C18.0008 38.5432 18.1139 38.1958 18.3231 37.9068C18.5324 37.6179 18.8273 37.4021 19.166 37.29L19.558 26.413C19.5832 25.8534 19.7866 25.3165 20.1385 24.8806C20.4903 24.4447 20.9723 24.1327 21.514 23.99L21.5 13.412C21.4896 13.146 21.5593 12.883 21.7 12.657C21.7742 12.5441 21.8752 12.4515 21.9941 12.3874C22.113 12.3234 22.246 12.2899 22.381 12.29C22.6793 12.3044 22.9628 12.4242 23.181 12.628L27.795 16.48C28.4755 17.1069 28.8815 17.9768 28.925 18.901L28.919 23.99C29.4598 24.1332 29.9407 24.4454 30.2916 24.8811C30.6426 25.3168 30.8452 25.8531 30.87 26.412L31.263 37.29C31.6019 37.4019 31.897 37.6176 32.1064 37.9066C32.3159 38.1955 32.4291 38.5431 32.43 38.9V47.39C32.43 47.8409 32.2509 48.2733 31.9321 48.5921C31.6133 48.9109 31.1809 49.09 30.73 49.09H19.7ZM21.573 27.723L21.23 37.198H29.2L28.857 27.723C28.844 27.4392 28.7227 27.1711 28.5181 26.9739C28.3135 26.7768 28.0411 26.6655 27.757 26.663H22.672C22.3881 26.6658 22.1159 26.7772 21.9116 26.9743C21.7072 27.1714 21.586 27.4393 21.573 27.723V27.723Z" fill="url(#paint1_linear_2_17)"/>
</g>
</svg>
