<svg width="279" height="44" viewBox="0 0 279 44" fill="none" xmlns="http://www.w3.org/2000/svg">
<defs>
<linearGradient id="paint0_linear_39_88" x1="-3.14973" y1="31.2793" x2="35.5159" y2="23.3816" gradientUnits="userSpaceOnUse">
<stop stop-color="#0CB351"/>
<stop offset="1" stop-color="#00FF5F"/>
</linearGradient>
<linearGradient id="paint1_linear_39_88" x1="281.523" y1="31.284" x2="242.849" y2="23.3837" gradientUnits="userSpaceOnUse">
<stop stop-color="#0CB351"/>
<stop offset="1" stop-color="#00FF5F"/>
</linearGradient>
</defs>
<path d="M65.6585 4.03622H63.1695C62.8854 4.03622 62.613 4.14902 62.4122 4.34986C62.2114 4.55069 62.0985 4.82312 62.0985 5.10715V13.411C61.4818 12.9125 60.8111 12.4846 60.0991 12.1354C58.6174 11.4257 56.9932 11.0639 55.3503 11.0775C53.887 11.0612 52.4362 11.3484 51.0895 11.9212C49.7428 12.4939 48.5296 13.3396 47.5263 14.4049C46.4765 15.4599 45.6491 16.7148 45.093 18.0953C44.537 19.4758 44.2635 20.9538 44.2889 22.4419C44.2679 23.9189 44.5458 25.385 45.1061 26.7519C45.6664 28.1187 46.4975 29.358 47.5492 30.3953C48.5646 31.4569 49.7876 32.2983 51.142 32.8671C52.4965 33.4358 53.9535 33.7198 55.4224 33.7014C57.1082 33.7106 58.7774 33.3682 60.3235 32.6961C61.9409 31.9603 63.3799 30.8832 64.5417 29.5389C64.5869 29.4884 64.6269 29.4335 64.6613 29.3751C65.7376 27.652 66.441 25.7226 66.7262 23.711C66.7288 23.6668 66.7288 23.6224 66.7262 23.5783V5.10715C66.7262 4.82368 66.6138 4.5518 66.4136 4.35105C66.2135 4.15031 65.942 4.03709 65.6585 4.03622ZM60.3464 27.2021C59.7406 27.8387 59.0084 28.3417 58.1968 28.6787C57.3852 29.0157 56.5122 29.1793 55.6336 29.159C54.4589 29.1729 53.3029 28.8643 52.2915 28.2665C51.2717 27.6691 50.4321 26.8075 49.8614 25.7726C49.2601 24.7339 48.9463 23.5536 48.9526 22.3534C48.9515 21.1486 49.2665 19.9646 49.8663 18.9196C50.4362 17.866 51.2863 16.9904 52.3226 16.3897C53.3128 15.7998 54.445 15.4907 55.5976 15.4955C56.7862 15.4924 57.9545 15.8037 58.984 16.3979C60.0078 16.955 60.8519 17.7922 61.4173 18.8115C61.9979 19.8755 62.294 21.0712 62.277 22.2831C62.3072 23.1913 62.1515 24.0961 61.8195 24.9419C61.4875 25.7878 60.9862 26.5569 60.3464 27.2021Z" fill="white"/>
<path d="M79.8623 11.0776C78.2088 11.0276 76.5674 11.3743 75.0754 12.0888C73.5834 12.8033 72.2842 13.8648 71.2867 15.1845C69.5912 17.3448 68.7067 20.031 68.7868 22.776C68.867 25.521 69.9069 28.151 71.7255 30.2087C72.7531 31.3724 74.0289 32.2904 75.4588 32.8949C76.8887 33.4995 78.4361 33.7751 79.9868 33.7015C81.4319 33.7212 82.8685 33.4776 84.2263 32.9826C85.487 32.5028 86.6459 31.7894 87.6422 30.88C88.7316 29.8523 89.6201 28.6307 90.2622 27.2776C90.3857 27.0279 90.4073 26.74 90.3223 26.4747C90.2374 26.2094 90.0525 25.9876 89.807 25.8561L87.7093 24.7361C87.4673 24.6069 87.185 24.5755 86.9206 24.6483C86.6561 24.7211 86.4297 24.8926 86.2879 25.1274C85.7731 26.0568 85.1236 26.9051 84.3606 27.6444C83.7486 28.1584 83.0499 28.5593 82.2973 28.8282C81.4899 29.1309 80.6346 29.2857 79.7723 29.2851C78.9495 29.3055 78.1317 29.1511 77.3729 28.8321C76.6142 28.5132 75.9317 28.0368 75.3706 27.4347C74.3792 26.4041 73.7524 25.0773 73.5857 23.6569H89.9429C90.0839 23.6569 90.2236 23.6291 90.3538 23.575C90.4841 23.5208 90.6024 23.4416 90.7019 23.3416C90.8014 23.2416 90.8802 23.123 90.9337 22.9925C90.9872 22.862 91.0145 22.7222 91.0138 22.5811C91.0845 19.9468 90.2499 17.3679 88.6492 15.2746C87.6225 13.9282 86.2902 12.8453 84.7623 12.1156C83.2344 11.3858 81.5549 11.0301 79.8623 11.0776ZM74.208 19.3634C74.5357 18.5446 75.0348 17.8053 75.6719 17.1953C76.8202 16.1479 78.3282 15.5837 79.882 15.6201C80.8746 15.6195 81.8553 15.8375 82.7542 16.2587C83.5902 16.631 84.3288 17.1914 84.9124 17.8962C85.2589 18.3448 85.5385 18.8412 85.7427 19.3699L74.208 19.3634Z" fill="white"/>
<path d="M112.02 12.5645C111.923 12.4137 111.79 12.2898 111.632 12.2039C111.475 12.1181 111.298 12.0732 111.119 12.0732H108.434C108.227 12.0715 108.024 12.1298 107.849 12.2411C107.675 12.3524 107.537 12.512 107.451 12.7004L101.949 24.7607L96.4012 12.6971C96.3156 12.5111 96.1785 12.3536 96.0061 12.2433C95.8337 12.133 95.6332 12.0746 95.4285 12.0748H92.7626C92.5831 12.0749 92.4065 12.1201 92.249 12.2062C92.0916 12.2924 91.9583 12.4168 91.8614 12.568C91.7646 12.7191 91.7073 12.8922 91.6948 13.0713C91.6823 13.2504 91.715 13.4297 91.79 13.5928L100.768 33.0973C100.854 33.2834 100.991 33.441 101.163 33.5516C101.336 33.6622 101.536 33.721 101.741 33.7211H102.185C102.39 33.7212 102.591 33.6623 102.764 33.5514C102.937 33.4405 103.074 33.2822 103.159 33.0956L112.085 13.5912C112.161 13.4283 112.195 13.2488 112.184 13.0694C112.173 12.8899 112.116 12.7163 112.02 12.5645Z" fill="white"/>
<path d="M146.48 12.1534C147.886 12.1208 149.283 12.3949 150.572 12.9569C151.862 13.5188 153.013 14.3549 153.947 15.4071C155.711 17.3307 156.672 19.8566 156.632 22.4664C156.656 25.1212 155.634 27.6787 153.788 29.5864C152.831 30.5523 151.692 31.3191 150.437 31.8424C149.182 32.3656 147.836 32.635 146.476 32.635C145.117 32.635 143.771 32.3656 142.516 31.8424C141.261 31.3191 140.122 30.5523 139.165 29.5864C137.37 27.6742 136.358 25.1576 136.33 22.5351C136.303 19.9125 137.26 17.3751 139.014 15.4251C139.945 14.3687 141.096 13.5286 142.385 12.9635C143.675 12.3983 145.072 12.1218 146.48 12.1534ZM146.48 14.6097C145.476 14.6001 144.481 14.8007 143.56 15.1986C142.638 15.5966 141.81 16.183 141.128 16.9202C140.401 17.6539 139.828 18.5258 139.443 19.4846C139.058 20.4434 138.87 21.4696 138.888 22.5025C138.881 23.8874 139.233 25.2505 139.91 26.4588C140.548 27.6418 141.507 28.6212 142.676 29.285C143.844 29.9325 145.158 30.2722 146.494 30.2722C147.829 30.2722 149.143 29.9325 150.312 29.285C151.475 28.6198 152.427 27.6403 153.059 26.4588C153.73 25.2486 154.079 23.8863 154.073 22.5025C154.091 21.4696 153.903 20.4434 153.518 19.4846C153.133 18.5258 152.56 17.6539 151.833 16.9202C151.152 16.1816 150.324 15.5936 149.402 15.1939C148.48 14.7943 147.484 14.592 146.48 14.5999V14.6097Z" fill="white"/>
<path d="M160.864 5.56891H163.389V32.6108H160.864V5.56891Z" fill="white"/>
<path d="M177.794 12.1534C179.2 12.1209 180.597 12.3951 181.886 12.957C183.176 13.5189 184.327 14.355 185.261 15.4071C187.025 17.331 187.985 19.8568 187.945 22.4664C187.969 25.1212 186.947 27.6788 185.101 29.5864C184.144 30.5523 183.005 31.3191 181.75 31.8423C180.495 32.3656 179.149 32.635 177.789 32.635C176.429 32.635 175.083 32.3656 173.828 31.8423C172.573 31.3191 171.434 30.5523 170.478 29.5864C168.683 27.6741 167.671 25.1576 167.643 22.5351C167.615 19.9125 168.573 17.3751 170.327 15.4251C171.258 14.3685 172.409 13.5282 173.698 12.963C174.988 12.3979 176.386 12.1216 177.794 12.1534ZM177.794 14.6096C176.79 14.6001 175.795 14.8007 174.874 15.1986C173.952 15.5966 173.124 16.183 172.443 16.9202C171.715 17.6538 171.142 18.5257 170.757 19.4845C170.373 20.4433 170.184 21.4695 170.202 22.5025C170.195 23.8874 170.547 25.2505 171.224 26.4588C171.863 27.6415 172.821 28.6208 173.99 29.285C175.158 29.9323 176.472 30.272 177.808 30.272C179.144 30.272 180.457 29.9323 181.626 29.285C182.788 28.6196 183.74 27.6402 184.372 26.4588C185.043 25.2486 185.392 23.8863 185.385 22.5025C185.404 21.4695 185.215 20.4433 184.831 19.4845C184.446 18.5257 183.873 17.6538 183.145 16.9202C182.465 16.1813 181.637 15.5931 180.715 15.1934C179.794 14.7938 178.799 14.5916 177.794 14.5999V14.6096Z" fill="white"/>
<path d="M211.892 28.183C211.988 30.213 211.742 32.2446 211.163 34.1927C210.551 35.9344 209.338 37.4006 207.741 38.3275C205.955 39.3323 203.93 39.8326 201.882 39.775C200.347 39.7987 198.819 39.5583 197.366 39.0644C196.161 38.6626 195.053 38.0145 194.112 37.1615C193.127 36.1572 192.342 34.9746 191.8 33.6769H194.52C195.183 34.8863 196.18 35.8798 197.392 36.5393C198.75 37.1975 200.248 37.5144 201.756 37.4628C203.256 37.5101 204.745 37.1801 206.085 36.5032C207.148 35.9766 208.025 35.1393 208.601 34.1026C209.193 32.6188 209.448 31.022 209.347 29.4276V28.4319C208.431 29.6133 207.245 30.5583 205.889 31.1879C204.408 31.8788 202.783 32.2054 201.15 32.1405C199.517 32.0755 197.923 31.6209 196.501 30.8145C194.969 29.9767 193.701 28.7293 192.838 27.212C191.982 25.6754 191.54 23.9424 191.557 22.1834C191.573 20.4244 192.048 18.7 192.933 17.18C193.818 15.6599 195.084 14.3964 196.606 13.5139C198.127 12.6315 199.853 12.1603 201.612 12.1468C202.975 12.1286 204.33 12.3578 205.612 12.8231C206.899 13.3529 208.102 14.0654 209.185 14.9388C210.638 16.4469 211.594 18.3645 211.923 20.4327C211.902 20.7886 211.892 23.372 211.892 28.183ZM201.936 14.5638C200.55 14.5548 199.185 14.9106 197.98 15.5954C196.783 16.264 195.793 17.2478 195.117 18.4398C194.428 19.6342 194.069 20.9908 194.077 22.3699C194.047 23.3568 194.222 24.3393 194.593 25.2547C194.963 26.1701 195.52 26.9985 196.228 27.6869C197.77 29.0367 199.749 29.7822 201.798 29.7856C203.848 29.7889 205.829 29.0497 207.376 27.7049C208.082 26.9843 208.632 26.1265 208.993 25.1845C209.354 24.2426 209.517 23.2367 209.473 22.229C209.498 20.8571 209.165 19.5024 208.506 18.299C207.863 17.1535 206.915 16.209 205.768 15.5708C204.601 14.9039 203.279 14.5571 201.936 14.5655V14.5638Z" fill="white"/>
<path d="M215.126 12.6447H217.776L224.478 27.6672L230.984 12.6447H233.668L222.022 39.2592H219.372L223.124 30.6721L215.126 12.6447Z" fill="white"/>
<path d="M124.385 12.6283H122.543C120.524 12.6283 118.588 13.4301 117.161 14.8575C115.733 16.2849 114.931 18.2209 114.931 20.2395V31.9919C114.931 32.1023 114.975 32.208 115.053 32.286C115.131 32.364 115.237 32.4078 115.347 32.4078H117.032C117.143 32.4078 117.248 32.364 117.326 32.286C117.404 32.208 117.448 32.1023 117.448 31.9919V20.3213C117.448 19.6165 117.587 18.9185 117.856 18.2673C118.126 17.616 118.521 17.0243 119.019 16.5258C119.518 16.0273 120.109 15.632 120.76 15.3622C121.412 15.0924 122.11 14.9535 122.814 14.9535H124.113C125.537 14.9535 126.902 15.519 127.909 16.5257C128.915 17.5323 129.481 18.8977 129.481 20.3213V31.9919C129.481 32.1023 129.525 32.208 129.603 32.286C129.681 32.364 129.786 32.4078 129.897 32.4078H131.582C131.692 32.4078 131.798 32.364 131.876 32.286C131.954 32.208 131.998 32.1023 131.998 31.9919V20.2395C131.998 19.2398 131.801 18.2499 131.418 17.3264C131.035 16.4028 130.475 15.5638 129.768 14.857C129.061 14.1502 128.222 13.5896 127.298 13.2072C126.374 12.8248 125.384 12.6281 124.385 12.6283Z" fill="white"/>
<path d="M12.6637 22.0008L27.3227 7.34177C27.4974 7.1672 27.636 6.9599 27.7305 6.73175C27.8251 6.5036 27.8737 6.25907 27.8737 6.0121C27.8737 5.76514 27.8251 5.52061 27.7305 5.29246C27.636 5.06431 27.4974 4.85702 27.3227 4.68245L23.1913 0.55099C23.0167 0.37631 22.8094 0.23774 22.5813 0.143198C22.3531 0.0486555 22.1086 0 21.8616 0C21.6146 0 21.3701 0.0486555 21.142 0.143198C20.9138 0.23774 20.7065 0.37631 20.5319 0.55099L0.642678 20.4419C0.231096 20.855 0 21.4144 0 21.9975C0 22.5807 0.231096 23.1401 0.642678 23.5532L20.5319 43.4425C20.7065 43.6171 20.9138 43.7557 21.142 43.8502C21.3701 43.9448 21.6146 43.9934 21.8616 43.9934C22.1086 43.9934 22.3531 43.9448 22.5813 43.8502C22.8094 43.7557 23.0167 43.6171 23.1913 43.4425L27.3227 39.311C27.4974 39.1364 27.636 38.9291 27.7305 38.701C27.8251 38.4728 27.8737 38.2283 27.8737 37.9813C27.8737 37.7344 27.8251 37.4898 27.7305 37.2617C27.636 37.0335 27.4974 36.8262 27.3227 36.6517L12.6637 22.0008Z" fill="url(#paint0_linear_39_88)"/>
<path d="M12.0529 11.6435L13.376 7.7135L0.644265 20.4452C0.232683 20.8583 0.00158691 21.4177 0.00158691 22.0008C0.00158691 22.584 0.232683 23.1434 0.644265 23.5565L20.5336 43.4457C20.7081 43.6204 20.9154 43.759 21.1436 43.8535C21.3717 43.9481 21.6162 43.9967 21.8632 43.9967C22.1102 43.9967 22.3547 43.9481 22.5829 43.8535C22.811 43.759 23.0183 43.6204 23.1929 43.4457L27.3243 39.3143C27.499 39.1397 27.6376 38.9324 27.7321 38.7043C27.8267 38.4761 27.8753 38.2316 27.8753 37.9846C27.8753 37.7377 27.8267 37.4931 27.7321 37.265C27.6376 37.0368 27.499 36.8295 27.3243 36.655L14.8956 23.997C13.6029 22.6808 12.6278 21.0868 12.0447 19.3366C11.2117 16.8394 11.2146 14.1389 12.0529 11.6435Z" fill="#00FF5F"/>
<path d="M265.709 22.0008L251.05 7.34177C250.875 7.1672 250.737 6.9599 250.642 6.73175C250.548 6.5036 250.499 6.25907 250.499 6.0121C250.499 5.76514 250.548 5.52061 250.642 5.29246C250.737 5.06431 250.875 4.85702 251.05 4.68245L255.181 0.55099C255.356 0.37631 255.563 0.23774 255.791 0.143198C256.02 0.0486555 256.264 0 256.511 0C256.758 0 257.003 0.0486555 257.231 0.143198C257.459 0.23774 257.666 0.37631 257.841 0.55099L277.73 20.4419C278.142 20.855 278.373 21.4144 278.373 21.9975C278.373 22.5807 278.142 23.1401 277.73 23.5532L257.834 43.449C257.66 43.6237 257.452 43.7622 257.224 43.8568C256.996 43.9513 256.751 44 256.504 44C256.258 44 256.013 43.9513 255.785 43.8568C255.557 43.7622 255.349 43.6237 255.175 43.449L251.043 39.3176C250.869 39.143 250.73 38.9357 250.636 38.7075C250.541 38.4794 250.492 38.2348 250.492 37.9879C250.492 37.7409 250.541 37.4964 250.636 37.2682C250.73 37.0401 250.869 36.8328 251.043 36.6582L265.709 22.0008Z" fill="url(#paint1_linear_39_88)"/>
<path d="M266.32 11.6435L264.997 7.7135L277.728 20.4452C278.14 20.8583 278.371 21.4177 278.371 22.0008C278.371 22.584 278.14 23.1434 277.728 23.5565L257.834 43.449C257.66 43.6237 257.452 43.7623 257.224 43.8568C256.996 43.9514 256.751 44 256.504 44C256.258 44 256.013 43.9514 255.785 43.8568C255.557 43.7623 255.349 43.6237 255.175 43.449L251.043 39.3176C250.869 39.143 250.73 38.9357 250.636 38.7075C250.541 38.4794 250.492 38.2349 250.492 37.9879C250.492 37.7409 250.541 37.4964 250.636 37.2682C250.73 37.0401 250.869 36.8328 251.043 36.6583L263.472 24.0002C264.765 22.684 265.74 21.0901 266.323 19.3399C267.158 16.8422 267.157 14.1405 266.32 11.6435Z" fill="#00FF5F"/>
</svg>
