<svg width="65" height="65" viewBox="0 0 65 65" fill="none" xmlns="http://www.w3.org/2000/svg">
<defs>
<filter id="filter0_d_2_12" x="8" y="19.0028" width="48.9971" height="42.1803" filterUnits="userSpaceOnUse" color-interpolation-filters="sRGB">
<feFlood flood-opacity="0" result="BackgroundImageFix"/>
<feColorMatrix in="SourceAlpha" type="matrix" values="0 0 0 0 0 0 0 0 0 0 0 0 0 0 0 0 0 0 127 0" result="hardAlpha"/>
<feOffset dy="8"/>
<feGaussianBlur stdDeviation="3"/>
<feColorMatrix type="matrix" values="0 0 0 0 0 0 0 0 0 0.607843 0 0 0 0 0.0705882 0 0 0 0.518 0"/>
<feBlend mode="normal" in2="BackgroundImageFix" result="effect1_dropShadow_2_12"/>
<feBlend mode="normal" in="SourceGraphic" in2="effect1_dropShadow_2_12" result="shape"/>
</filter>
<linearGradient id="paint0_linear_2_12" x1="32.5" y1="65" x2="32.5" y2="0" gradientUnits="userSpaceOnUse">
<stop stop-color="#2FC145"/>
<stop offset="1" stop-color="#B4FF4E"/>
</linearGradient>
<linearGradient id="paint1_linear_2_12" x1="32.4986" y1="19.0028" x2="32.4986" y2="47.1831" gradientUnits="userSpaceOnUse">
<stop stop-color="white"/>
<stop offset="1" stop-color="white" stop-opacity="0.525"/>
</linearGradient>
</defs>    
<path d="M32.5 0C38.9279 0 45.2114 1.90609 50.556 5.47724C55.9006 9.04838 60.0662 14.1242 62.5261 20.0628C64.9859 26.0014 65.6295 32.5361 64.3755 38.8404C63.1215 45.1448 60.0262 50.9358 55.481 55.481C50.9358 60.0262 45.1448 63.1215 38.8404 64.3755C32.5361 65.6295 26.0014 64.9859 20.0628 62.5261C14.1242 60.0662 9.04838 55.9006 5.47724 50.556C1.90609 45.2114 0 38.9279 0 32.5C0 23.8805 3.4241 15.614 9.51903 9.51903C15.614 3.4241 23.8805 0 32.5 0V0Z" fill="url(#paint0_linear_2_12)"/>
<g filter="url(#filter0_d_2_12)">
<path d="M30 47.18C29.1362 47.173 28.2939 46.9096 27.58 46.4232C26.866 45.9368 26.3127 45.2493 25.99 44.448L20.547 32.072L19.485 46.183C19.4666 46.4567 19.3439 46.713 19.1423 46.899C18.9406 47.0851 18.6753 47.1867 18.401 47.183H17.273C17.1286 47.181 16.986 47.15 16.8538 47.0918C16.7216 47.0337 16.6024 46.9495 16.5033 46.8444C16.4043 46.7393 16.3273 46.6153 16.2771 46.4799C16.2269 46.3444 16.2044 46.2003 16.211 46.056C16.332 39.5205 15.6846 32.9934 14.282 26.609C14.1496 26.1109 14.0553 25.6034 14 25.091C14.0546 23.1475 14.5909 21.248 15.561 19.563C15.6333 19.4331 15.7314 19.3193 15.8493 19.2286C15.9671 19.138 16.1023 19.0725 16.2465 19.036C16.3906 18.9996 16.5407 18.993 16.6875 19.0168C16.8343 19.0405 16.9747 19.094 17.1 19.174C22.349 22.674 24.792 27.493 27.165 32.852C31.523 42.606 37.202 41.392 37.549 41.566C40.193 41.566 43.749 40.395 41.649 38.445C44.4628 39.3415 47.1739 40.5331 49.737 42C50.2475 42.3401 50.6336 42.8369 50.837 43.4155C51.0405 43.9942 51.0503 44.6233 50.865 45.208C50.6955 45.7862 50.3405 46.2926 49.8547 46.6492C49.369 47.0057 48.7794 47.1926 48.177 47.181L30 47.18ZM37.529 39.88C35.9672 39.8029 34.4636 39.2627 33.21 38.328C30.9657 36.4585 29.2326 34.05 28.173 31.328C28.027 31.001 27.873 30.678 27.728 30.352C30.478 33.406 34.621 36.952 37.928 37.762C39.033 38.028 40.028 38.316 40.976 38.621C40.5572 39.0387 40.057 39.3659 39.5066 39.5825C38.9562 39.799 38.3671 39.9003 37.776 39.88H37.529Z" fill="url(#paint1_linear_2_12)"/>
</g>
</svg>
